<svg version="1.1" id="Layer_1" xmlns="http://www.w3.org/2000/svg" xmlns:xlink="http://www.w3.org/1999/xlink" x="0px" y="0px"
	 width="100%" viewBox="0 0 592 592" enable-background="new 0 0 592 592" xml:space="preserve">
<path fill="#000000" opacity="1.000000" stroke="none" 
	d="
M593.000000,87.000000 
	C593.000000,255.666672 593.000000,424.333344 593.000000,593.000000 
	C581.585632,593.000000 570.261475,593.000000 558.494995,592.603027 
	C564.407532,567.366516 567.846497,541.957886 572.566956,516.804504 
	C577.278687,491.697266 582.071838,466.588013 586.969910,441.507111 
	C583.794189,440.871552 582.540588,442.165680 581.105774,442.907013 
	C573.823914,446.669342 567.399292,451.743805 560.615540,456.273956 
	C537.352051,471.809204 514.710205,488.306702 490.199402,501.921021 
	C488.308807,502.971100 486.511505,504.142700 486.300964,506.718231 
	C485.718811,513.840149 484.327148,520.873169 483.510742,527.945984 
	C481.012146,549.592712 479.125000,571.310120 477.000000,593.000000 
	C475.285645,593.000000 473.571289,593.000000 471.334686,592.570068 
	C471.091125,588.333069 471.342316,584.523621 471.653900,580.719177 
	C472.454163,570.947815 473.059814,561.153809 474.151917,551.414673 
	C475.632050,538.214661 477.644867,525.074463 479.132568,511.875244 
	C479.993103,504.240356 479.716003,504.254211 472.529694,501.813263 
	C456.472900,496.359344 440.510468,490.613159 424.360504,485.452637 
	C411.378510,481.304474 398.209503,477.725433 385.065186,474.105560 
	C370.001831,469.957214 354.552155,467.128021 340.215637,460.557800 
	C327.804321,454.869873 315.208679,449.620880 302.274872,445.225983 
	C294.595795,442.616638 293.172699,443.910980 294.537811,452.065033 
	C294.619904,452.555450 294.830322,453.024231 294.914429,453.514557 
	C297.162903,466.619141 300.176910,479.575348 301.451202,492.868164 
	C303.258453,511.720978 304.971985,530.642029 309.274200,549.121399 
	C312.660614,563.666870 317.662048,577.857178 318.000000,593.000000 
	C260.645782,593.000000 203.291550,593.000000 145.651215,592.851562 
	C146.054886,592.141296 146.544632,591.488586 146.106155,590.559631 
	C143.301880,584.618225 142.552246,578.095947 140.759705,571.870300 
	C138.970444,565.656067 135.667679,560.293762 130.440323,556.293579 
	C128.007370,554.431763 125.958847,552.193237 124.855713,549.364929 
	C123.356384,545.520874 120.410248,543.866760 116.715988,542.712830 
	C110.994873,540.925903 105.312958,538.973816 99.731422,536.792480 
	C95.485298,535.132996 91.243248,532.768921 89.743240,528.277283 
	C87.698166,522.153442 85.831985,515.800659 85.188133,509.415070 
	C84.021881,497.848450 81.413460,486.798279 76.552513,476.263245 
	C74.726501,472.305756 73.482147,468.211334 72.868629,463.862061 
	C71.860199,456.713196 69.923454,449.804260 65.729416,443.791840 
	C62.244068,438.795349 58.002167,435.154419 51.196514,435.905670 
	C48.968414,436.151611 46.331783,435.820099 44.368874,434.808167 
	C35.518959,430.245819 25.881023,429.519226 16.294527,428.749512 
	C11.235665,428.343353 6.100638,428.885834 1.000000,429.000000 
	C1.000000,404.645782 1.000000,380.291534 1.232155,355.596375 
	C4.712824,356.332550 7.372584,353.893860 10.544780,353.765442 
	C15.652974,353.558533 20.867140,353.225983 25.834824,351.610199 
	C35.411987,348.495178 45.190464,346.652771 55.307667,347.117950 
	C59.807976,347.324890 61.950813,344.939789 63.913399,341.056732 
	C68.263168,332.450531 73.544342,324.044128 80.493668,317.568604 
	C93.561150,305.392120 102.812599,290.874023 110.873260,275.250427 
	C115.432716,266.412994 119.974815,257.613983 126.303215,249.679214 
	C131.558777,243.089630 138.073486,237.945114 143.545822,231.740936 
	C151.041351,223.242996 160.897476,217.212326 167.709610,208.033325 
	C168.744217,206.639221 170.632050,205.874069 172.135727,204.833160 
	C176.376816,201.897354 180.723511,199.102936 184.847092,196.010742 
	C193.613815,189.436722 202.226242,182.690598 210.653091,175.650085 
	C218.507721,169.087631 226.178009,162.180984 232.119385,154.243637 
	C244.368042,137.880127 260.602692,125.871437 274.987701,111.875565 
	C280.675690,106.341415 287.132965,101.427582 293.811310,97.116287 
	C308.836517,87.416519 326.216644,83.227432 342.992157,77.970520 
	C357.016449,73.575768 370.932648,69.094574 383.995728,62.405628 
	C400.411285,54.000038 416.640106,51.849796 433.630737,60.916191 
	C445.702209,67.357643 459.127319,69.385788 472.539551,71.223129 
	C479.455475,72.170540 486.043030,70.975517 492.808411,69.727921 
	C512.300110,66.133492 530.595703,56.320576 551.179993,58.413940 
	C551.664734,58.463238 552.171997,58.316452 552.666138,58.243568 
	C558.045166,57.450130 562.782043,58.774895 567.253540,61.948067 
	C571.231567,64.771095 573.602051,68.630585 575.908936,72.724030 
	C579.783142,79.598595 585.170410,84.795746 593.000000,87.000000 
M361.344849,317.433014 
	C361.524658,319.914917 361.624084,322.405701 361.898132,324.877167 
	C363.152039,336.185516 368.545013,346.154999 373.063721,356.226959 
	C376.485321,363.853638 381.979309,371.335785 389.559814,375.145020 
	C401.597595,381.194122 414.850098,384.578552 428.166321,386.556793 
	C445.345062,389.108734 462.752747,387.336395 480.056671,387.701233 
	C495.313263,388.022888 509.166229,384.641815 522.352844,375.818787 
	C538.321533,365.134338 543.748230,349.406403 546.370361,332.362366 
	C547.780029,323.199188 545.799255,313.488892 545.121704,304.041687 
	C544.813721,299.746979 544.978882,295.397308 543.685547,291.169739 
	C542.586365,287.576660 541.066345,285.972198 536.845703,287.076172 
	C528.148315,289.351196 519.196838,290.562225 510.229614,291.043976 
	C479.054535,292.718689 448.028809,290.313568 417.079742,286.890930 
	C400.715668,285.081207 384.346863,282.975403 368.770538,277.189331 
	C364.614685,275.645599 362.596802,277.278656 361.163971,280.992401 
	C359.386993,285.598053 359.091949,290.322662 358.992737,295.197327 
	C358.845581,302.429932 361.391052,309.310242 361.344849,317.433014 
M338.793274,452.548859 
	C347.856445,457.284241 357.522919,460.350525 367.399963,462.801666 
	C390.821716,468.614166 413.986511,475.248077 436.923492,482.807220 
	C451.463745,487.599182 465.735260,493.119659 480.282959,497.862762 
	C482.012360,498.426575 483.426605,498.483459 485.002014,497.528168 
	C493.546295,492.347198 502.342773,487.549866 510.649200,482.015198 
	C531.856873,467.884247 552.936951,453.556305 573.857544,439.004517 
	C577.954468,436.154846 582.812622,434.117279 586.327454,430.028442 
	C583.901306,427.308807 581.043701,426.365295 578.361084,425.158081 
	C561.986145,417.789154 545.555298,410.541656 529.250916,403.020111 
	C523.248413,400.251007 517.526611,396.869568 511.703766,393.717438 
	C510.024780,392.808563 508.684631,390.640259 506.428192,391.946655 
	C504.413849,393.112823 504.659119,395.390961 504.531982,397.337067 
	C504.446259,398.648804 504.684113,399.991150 504.858856,401.309021 
	C506.392761,412.876831 507.150360,424.491913 507.255463,436.162292 
	C507.286926,439.657684 506.240601,442.440186 503.198914,444.161011 
	C488.428162,452.517487 473.947205,461.808380 455.611206,458.449402 
	C451.862183,457.762634 447.997131,457.437988 444.183502,457.421814 
	C427.157440,457.349548 413.106842,449.849731 399.830963,440.162659 
	C392.139740,434.550507 390.845184,427.137695 393.208557,418.556549 
	C395.636749,409.739929 399.197388,401.276825 401.072784,392.264709 
	C401.816956,388.688477 400.898895,386.980072 397.765747,385.714722 
	C392.023743,383.395813 387.305847,382.161987 380.720886,386.001801 
	C365.079681,395.122437 348.139069,402.012146 334.534332,414.484955 
	C332.737732,416.132080 330.249390,417.015350 328.109161,418.298645 
	C320.539856,422.837097 312.957550,427.355011 305.440338,431.978516 
	C303.800201,432.987305 301.557556,433.993500 301.892365,436.351776 
	C302.193085,438.470062 304.510895,438.654480 306.166779,439.323853 
	C316.814575,443.628082 327.471375,447.909851 338.793274,452.548859 
M165.668610,349.207001 
	C157.650070,355.229248 157.650818,355.228241 149.928848,349.400909 
	C149.397705,349.000061 148.872543,348.577423 148.294144,348.255524 
	C146.109329,347.039612 143.730606,346.583679 141.772446,348.333374 
	C139.699173,350.185944 141.090836,352.421722 142.020401,354.294556 
	C144.128433,358.541656 148.464355,360.446381 151.959045,363.201599 
	C156.457672,366.748322 156.769272,368.039032 153.148590,372.417053 
	C151.492706,374.419342 150.265961,376.763062 152.634018,378.497589 
	C155.942505,380.920898 159.704727,383.320831 164.124756,380.926300 
	C167.635147,379.024536 170.587799,379.745758 173.923264,381.666779 
	C177.307510,383.615906 180.932175,385.849182 185.410202,384.792206 
	C185.134964,380.944336 182.221191,380.123199 180.214325,378.617004 
	C174.485687,374.317474 173.642395,370.178162 179.088364,365.650665 
	C188.322952,357.973541 196.103317,348.716431 205.771744,341.567505 
	C221.863541,329.669128 237.162781,316.772644 251.427780,302.803711 
	C263.133667,291.340790 277.207031,282.754852 288.473602,270.852173 
	C293.061676,266.005066 298.451355,262.097717 303.850220,258.154785 
	C315.539673,249.617615 327.545959,241.178894 337.109406,230.343140 
	C349.676575,216.104019 364.480835,204.495987 378.992645,192.634125 
	C398.980652,176.296021 418.899628,159.905380 437.741547,142.272934 
	C443.539368,136.847275 445.942291,129.103027 448.851013,120.954605 
	C444.688568,121.848869 442.629761,124.137184 440.331970,125.922318 
	C428.767609,134.906662 418.456909,145.358276 406.996246,154.494934 
	C404.072235,156.826019 399.806549,158.592453 398.775391,162.540344 
	C397.997406,165.518723 396.220642,167.009781 394.099976,168.600723 
	C390.507263,171.296097 386.965393,174.059540 383.360809,176.738739 
	C377.534119,181.069519 371.673920,185.355194 365.871887,189.627533 
	C364.228271,188.010498 363.693085,186.506149 365.295258,185.443405 
	C368.642944,183.222870 370.631592,179.625565 374.181488,177.519012 
	C378.301544,175.074081 382.379364,172.485443 386.033234,169.249069 
	C400.352631,156.565659 414.471161,143.645355 429.638428,131.945053 
	C434.027435,128.559280 438.187012,124.862473 442.786469,119.592941 
	C435.428680,121.068184 430.002136,123.372185 425.154053,126.962166 
	C409.781586,138.345398 394.992523,150.457962 380.285156,162.684921 
	C366.204956,174.390488 351.986725,186.000244 337.346039,196.934921 
	C319.350525,210.375183 302.728424,225.492584 284.375366,238.484177 
	C263.652893,253.153000 247.078583,272.619232 227.907516,289.118011 
	C223.112946,293.244232 217.893799,296.959656 213.551193,301.513672 
	C198.160049,317.654144 181.208572,332.220764 165.668610,349.207001 
M190.939499,440.560822 
	C185.119049,435.088959 179.514252,429.379395 173.177429,424.477173 
	C169.111969,421.332062 167.102951,417.637848 167.628769,412.057892 
	C168.851807,399.079102 162.357498,390.586853 152.050903,386.352173 
	C139.255829,381.095062 125.340355,384.203033 117.675667,393.313690 
	C117.150871,393.937439 116.687592,394.672821 116.408516,395.434265 
	C113.153481,404.315918 118.274910,419.013214 127.079407,422.786652 
	C135.435287,426.367798 141.821701,431.709686 147.703445,438.399628 
	C153.625168,445.135071 161.030243,450.616180 166.624924,457.579285 
	C179.578598,473.701355 195.931396,486.089600 211.255142,499.594727 
	C216.097061,503.862030 222.237061,506.901917 229.080811,504.419495 
	C234.120773,502.591370 239.185760,502.953308 244.315704,502.658875 
	C259.256836,501.801239 274.183472,500.672729 289.106476,499.529541 
	C292.975342,499.233154 295.266479,497.213593 294.697632,492.932556 
	C293.975403,487.496765 293.248505,482.061035 292.602234,476.615936 
	C292.098145,472.368713 290.330200,470.827972 285.643707,471.462921 
	C268.670227,473.762573 251.608109,475.243408 234.450333,475.334473 
	C229.029556,475.363251 224.673660,473.577057 220.523102,469.867950 
	C210.324463,460.753998 200.979935,450.816742 190.939499,440.560822 
M499.768402,437.972748 
	C500.988373,435.982666 500.696411,433.757019 500.557037,431.636353 
	C499.946686,422.350800 499.349030,413.060547 498.481781,403.796783 
	C497.546021,393.801697 497.417389,393.815948 487.366150,394.306061 
	C486.369080,394.354675 485.369720,394.377106 484.371460,394.375305 
	C468.894043,394.347290 453.415070,394.434357 437.939911,394.229980 
	C430.108246,394.126556 422.302399,393.201935 414.935303,390.334045 
	C410.610657,388.650452 408.195129,389.839111 407.384674,394.297638 
	C405.650482,403.837738 401.938629,412.789368 398.939514,421.930664 
	C397.347687,426.782471 398.741730,429.918457 401.977936,432.975586 
	C408.230988,438.882690 415.773102,442.757446 423.396179,446.496979 
	C431.553192,450.498444 440.611267,449.756042 449.197784,451.454346 
	C468.084381,455.190002 484.148651,448.848907 499.768402,437.972748 
M443.854553,281.589600 
	C465.569122,284.329132 487.356140,283.787109 509.150665,283.072266 
	C519.333374,282.738251 529.325134,281.320282 539.159302,278.596588 
	C543.518616,277.389221 545.455750,274.645386 545.759094,270.359985 
	C546.231323,263.688965 542.680847,258.556213 538.981262,253.670700 
	C537.543823,251.772461 534.952576,250.714264 532.297485,252.596573 
	C529.928345,254.276169 527.012451,254.479691 524.302795,255.255325 
	C511.139771,259.023315 497.713470,258.721893 484.208008,258.347778 
	C447.193329,257.322418 410.588135,254.161835 375.916779,239.640808 
	C375.031921,239.270218 373.957001,239.294037 372.965363,239.246964 
	C362.869446,238.767944 354.746063,246.732346 354.117065,257.701874 
	C353.820557,262.872589 356.224182,266.676392 361.289612,267.432770 
	C367.601654,268.375275 373.568359,270.432617 379.614899,272.206207 
	C383.740723,273.416382 386.986816,273.927277 390.014282,269.781555 
	C391.916595,267.176544 395.196686,265.663574 398.375244,264.518616 
	C407.397247,261.268768 414.619110,263.139557 419.214355,270.016876 
	C423.596069,276.574677 429.866608,279.804352 437.521820,280.728271 
	C439.337921,280.947449 441.145355,281.238312 443.854553,281.589600 
M412.800232,220.361313 
	C404.341949,223.781830 396.723267,228.349335 390.816650,235.253983 
	C392.464783,237.554077 394.294586,237.492157 395.787720,238.141632 
	C409.895752,244.278244 425.162964,245.189346 440.044189,247.544891 
	C459.465210,250.619003 479.176941,250.170532 498.790710,250.764175 
	C505.851715,250.977890 512.739319,250.134354 519.496826,248.192963 
	C521.008240,247.758759 523.235962,248.141342 523.762207,246.187378 
	C524.360046,243.967438 522.621338,242.548843 521.120300,241.186447 
	C518.039734,238.390411 514.727966,235.798111 511.957794,232.720169 
	C502.777252,222.519592 490.895569,217.357635 478.008301,213.962265 
	C472.900238,212.616470 467.756561,213.871140 462.629364,213.851776 
	C445.980316,213.788940 429.340820,213.631165 412.800232,220.361313 
M89.561363,446.983917 
	C96.633133,449.653107 100.973976,448.317688 102.055923,442.307800 
	C102.795372,438.200470 104.865707,435.302643 107.440872,432.496399 
	C109.575226,430.170471 112.032814,428.136993 114.122597,425.775208 
	C118.028267,421.361237 113.511650,418.468414 111.790405,415.296936 
	C110.093063,412.169495 107.524101,414.120728 105.899971,415.536224 
	C99.197769,421.377533 91.692322,425.738373 83.616936,429.437561 
	C78.049217,431.987976 77.706459,437.989746 82.371269,442.075928 
	C84.359840,443.817841 86.703033,445.154907 89.561363,446.983917 
z"/>
<path fill="#000000" opacity="1.000000" stroke="none" 
	d="
M544.437500,593.000000 
	C543.920044,564.350403 541.149597,535.772156 541.724792,507.107880 
	C541.784119,504.151062 540.598633,499.396606 544.821655,499.375610 
	C549.401794,499.352783 548.274963,504.263702 548.249146,507.336914 
	C548.011292,535.658875 549.995789,563.909790 550.910034,592.598267 
	C548.958313,593.000000 546.916687,593.000000 544.437500,593.000000 
z"/>
<path fill="#000000" opacity="1.000000" stroke="none" 
	d="
M520.428467,593.000000 
	C519.570618,580.712952 518.673584,568.419250 518.846680,556.140686 
	C519.011658,544.442322 516.183411,532.995789 516.712097,521.322388 
	C516.802246,519.331177 516.805481,517.316467 517.136719,515.361389 
	C517.447754,513.525269 518.157288,511.569092 520.530518,511.787567 
	C522.840820,512.000244 523.261963,513.908325 523.308838,515.855896 
	C523.480652,522.994141 523.452576,530.108032 524.077637,537.265869 
	C525.668396,555.481628 526.608887,573.757324 526.054749,592.533813 
	C524.285645,593.000000 522.571289,593.000000 520.428467,593.000000 
z"/>
<path fill="#000000" opacity="1.000000" stroke="none" 
	d="
M304.318146,239.412048 
	C294.118835,251.502777 281.431122,261.048401 270.543121,272.431488 
	C264.429199,278.823364 258.064484,285.059143 250.949188,290.192810 
	C235.948822,301.015503 223.176529,314.386932 208.767059,325.860321 
	C195.774902,336.205200 183.142563,346.974823 171.797195,359.161896 
	C171.391571,359.597626 170.793243,359.853973 169.589844,360.658386 
	C170.322510,357.063660 172.145065,355.027222 173.711075,352.780151 
	C183.014160,339.430969 197.141281,331.364349 208.840820,320.647339 
	C217.866302,312.379822 227.481613,304.758575 236.775955,296.781555 
	C247.256668,287.786316 258.843323,279.726532 267.776733,269.383636 
	C276.252655,259.570404 287.104462,253.064133 296.246094,244.357864 
	C297.856537,242.824112 298.476135,240.654892 300.834839,239.130066 
	C302.363586,239.048996 303.340881,239.230515 304.318146,239.412048 
z"/>
<path fill="#000000" opacity="1.000000" stroke="none" 
	d="
M304.617096,239.257477 
	C303.340881,239.230515 302.363586,239.048996 301.083740,238.908173 
	C300.784332,237.911087 301.055237,236.958344 301.834991,236.242874 
	C311.666870,227.221603 320.019806,216.626495 331.485474,209.328568 
	C339.476013,204.242584 346.572113,197.894241 353.803223,191.773148 
	C355.233398,190.562531 356.580505,188.913315 358.761841,189.403900 
	C358.978149,190.074448 359.257324,190.538025 359.148712,190.662109 
	C356.656982,193.507889 354.420624,197.192276 351.650848,199.076706 
	C334.554352,210.708450 319.731598,224.877686 304.617096,239.257477 
z"/>
</svg>