{"asset":{"version":"2.0","generator":"Blockbench 4.11.2 glTF exporter"},"scenes":[{"nodes":[2],"name":"blockbench_export"}],"scene":0,"nodes":[{"name":"sphere","mesh":0},{"name":"root","children":[0]},{"children":[1]}],"bufferViews":[{"buffer":0,"byteOffset":0,"byteLength":2160,"target":34962,"byteStride":12},{"buffer":0,"byteOffset":2160,"byteLength":2160,"target":34962,"byteStride":12},{"buffer":0,"byteOffset":4320,"byteLength":1440,"target":34962,"byteStride":8},{"buffer":0,"byteOffset":5760,"byteLength":480,"target":34963},{"buffer":0,"byteOffset":6240,"byteLength":8},{"buffer":0,"byteOffset":6248,"byteLength":32},{"buffer":0,"byteOffset":6280,"byteLength":36},{"buffer":0,"byteOffset":6316,"byteLength":144}],"buffers":[{"byteLength":6460,"uri":"data:application/octet-stream;base64,"}],"accessors":[{"bufferView":0,"componentType":5126,"count":180,"max":[0.5,0.5,0.5380282402038574],"min":[-0.5,-0.5,-0.4755282700061798],"type":"VEC3"},{"bufferView":1,"componentType":5126,"count":180,"max":[0.9624044895172119,0.9510565400123596,0.9801534414291382],"min":[-0.9957702159881592,-0.9315309524536133,-0.8999860286712646],"type":"VEC3"},{"bufferView":2,"componentType":5126,"count":180,"max":[0.609375,0.616128146648407],"min":[0,0],"type":"VEC2"},{"bufferView":3,"componentType":5123,"count":240,"max":[179],"min":[0],"type":"SCALAR"},{"bufferView":4,"componentType":5126,"count":2,"max":[0.25],"min":[0],"type":"SCALAR"},{"bufferView":5,"componentType":5126,"count":2,"max":[0,0,0,1],"min":[0,0,0,1],"type":"VEC4"},{"bufferView":6,"componentType":5126,"count":9,"max":[0.9583333134651184],"min":[0],"type":"SCALAR"},{"bufferView":7,"componentType":5126,"count":9,"max":[0.9978589415550232,0,0,1],"min":[-0.9807852506637573,0,0,-0.9914448857307434],"type":"VEC4"}],"materials":[{"pbrMetallicRoughness":{"metallicFactor":0,"roughnessFactor":1,"baseColorTexture":{"index":0}},"alphaMode":"MASK","alphaCutoff":0.05,"doubleSided":true}],"textures":[{"sampler":0,"source":0,"name":"gorillaRockTexture"}],"samplers":[{"magFilter":9728,"minFilter":9728,"wrapS":33071,"wrapT":33071}],"images":[{"mimeType":"image/png","uri":"data:image/png;base64,"}],"meshes":[{"primitives":[{"mode":4,"attributes":{"POSITION":0,"NORMAL":1,"TEXCOORD_0":2},"indices":3,"material":0}]}],"animations":[{"name":"idle","samplers":[{"input":4,"output":5,"interpolation":"LINEAR"}],"channels":[{"sampler":0,"target":{"node":1,"path":"rotation"}}]},{"name":"flying","samplers":[{"input":6,"output":7,"interpolation":"LINEAR"}],"channels":[{"sampler":0,"target":{"node":1,"path":"rotation"}}]}]}