{"asset":{"version":"2.0","generator":"Blockbench 4.10.4 glTF exporter"},"scenes":[{"nodes":[33],"name":"blockbench_export"}],"scene":0,"nodes":[{"rotation":[0,0,-1,6.123233995736766e-17],"translation":[0,0.3125,0],"name":"pyramid-col","mesh":0},{"rotation":[0,0,-1,6.123233995736766e-17],"translation":[0,0.53125,-0.03125],"name":"cuboid","mesh":1},{"translation":[0,0.125,0],"name":"sphere-col","mesh":2},{"translation":[0,-0.09375,0],"name":"cylinder-col","mesh":3},{"translation":[0,0.4375,-0.03125],"name":"Head","children":[2,3]},{"rotation":[0,0,-0.7071067811865475,0.7071067811865476],"translation":[-0.125,0,0],"name":"cylinder","mesh":4},{"rotation":[5.336750069161389e-18,-3.2678169450239554e-34,-1,6.123233995736766e-17],"translation":[0,-0.0625,0],"name":"cylinder","mesh":5},{"translation":[0,-0.3125,0],"name":"sphere","mesh":6},{"translation":[0,-0.015625,-0.0625],"name":"tube","mesh":7},{"rotation":[0,-1,0,6.123233995736766e-17],"translation":[0,-0.453125,-0.09375],"name":"tube","mesh":8},{"rotation":[0.7071067811865475,0,0,0.7071067811865476],"translation":[0,-0.125,-0.109375],"name":"tube","mesh":9},{"rotation":[0.7071067811865475,0,0,0.7071067811865476],"translation":[0,-0.390625,0.03125],"name":"Sword","children":[8,9,10]},{"rotation":[0,0,0.7071067811865475,0.7071067811865476],"translation":[0.25,0,0],"name":"Relbow","children":[6,7,11]},{"translation":[0.1875,0.375,0],"name":"Rarm","children":[5,12]},{"rotation":[0,0,0.7071067811865475,0.7071067811865476],"translation":[-0.125,0,-1.2810265668751807e-17],"name":"cylinder","mesh":10},{"translation":[0,-0.21875,0],"name":"cylinder","mesh":11},{"translation":[0,-0.3125,0],"name":"sphere","mesh":12},{"rotation":[0,0,-0.7071067811865475,0.7071067811865476],"translation":[-0.25,0,0],"name":"Lelbow","children":[15,16]},{"translation":[-0.1875,0.375,0],"name":"Larm","children":[14,17]},{"translation":[0,0.125,0],"name":"Body","children":[1,4,13,18]},{"translation":[0,-0.28125,0],"name":"cylinder-col","mesh":13},{"translation":[0,-0.375,0],"name":"cylinder-col","mesh":14},{"translation":[0,-0.03125,-0.03125],"name":"sphere-col","mesh":15},{"translation":[0,-0.375,0],"name":"Loot","children":[22]},{"translation":[0,-0.21875,0],"name":"Lee","children":[21,23]},{"translation":[-0.0625,0.0625,0],"name":"Leg","children":[20,24]},{"translation":[0,-0.28125,0],"name":"cylinder-col","mesh":16},{"translation":[0,-0.375,0],"name":"cylinder-col","mesh":17},{"translation":[0,-0.03125,-0.03125],"name":"sphere-col","mesh":18},{"translation":[0,-0.375,0],"name":"Root","children":[28]},{"translation":[0,-0.21875,0],"name":"Ree","children":[27,29]},{"translation":[0.0625,0.0625,0],"name":"Reg","children":[26,30]},{"translation":[0,0.5625,0],"name":"Pelvis","children":[0,19,25,31]},{"children":[32]}],"bufferViews":[{"buffer":0,"byteOffset":0,"byteLength":192,"target":34962,"byteStride":12},{"buffer":0,"byteOffset":192,"byteLength":192,"target":34962,"byteStride":12},{"buffer":0,"byteOffset":384,"byteLength":128,"target":34962,"byteStride":8},{"buffer":0,"byteOffset":512,"byteLength":36,"target":34963},{"buffer":0,"byteOffset":548,"byteLength":288,"target":34962,"byteStride":12},{"buffer":0,"byteOffset":836,"byteLength":288,"target":34962,"byteStride":12},{"buffer":0,"byteOffset":1124,"byteLength":192,"target":34962,"byteStride":8},{"buffer":0,"byteOffset":1316,"byteLength":72,"target":34963},{"buffer":0,"byteOffset":1388,"byteLength":3168,"target":34962,"byteStride":12},{"buffer":0,"byteOffset":4556,"byteLength":3168,"target":34962,"byteStride":12},{"buffer":0,"byteOffset":7724,"byteLength":2112,"target":34962,"byteStride":8},{"buffer":0,"byteOffset":9836,"byteLength":720,"target":34963},{"buffer":0,"byteOffset":10556,"byteLength":1440,"target":34962,"byteStride":12},{"buffer":0,"byteOffset":11996,"byteLength":1440,"target":34962,"byteStride":12},{"buffer":0,"byteOffset":13436,"byteLength":960,"target":34962,"byteStride":8},{"buffer":0,"byteOffset":14396,"byteLength":288,"target":34963},{"buffer":0,"byteOffset":14684,"byteLength":1440,"target":34962,"byteStride":12},{"buffer":0,"byteOffset":16124,"byteLength":1440,"target":34962,"byteStride":12},{"buffer":0,"byteOffset":17564,"byteLength":960,"target":34962,"byteStride":8},{"buffer":0,"byteOffset":18524,"byteLength":288,"target":34963},{"buffer":0,"byteOffset":18812,"byteLength":1440,"target":34962,"byteStride":12},{"buffer":0,"byteOffset":20252,"byteLength":1440,"target":34962,"byteStride":12},{"buffer":0,"byteOffset":21692,"byteLength":960,"target":34962,"byteStride":8},{"buffer":0,"byteOffset":22652,"byteLength":288,"target":34963},{"buffer":0,"byteOffset":22940,"byteLength":720,"target":34962,"byteStride":12},{"buffer":0,"byteOffset":23660,"byteLength":720,"target":34962,"byteStride":12},{"buffer":0,"byteOffset":24380,"byteLength":480,"target":34962,"byteStride":8},{"buffer":0,"byteOffset":24860,"byteLength":144,"target":34963},{"buffer":0,"byteOffset":25004,"byteLength":576,"target":34962,"byteStride":12},{"buffer":0,"byteOffset":25580,"byteLength":576,"target":34962,"byteStride":12},{"buffer":0,"byteOffset":26156,"byteLength":384,"target":34962,"byteStride":8},{"buffer":0,"byteOffset":26540,"byteLength":144,"target":34963},{"buffer":0,"byteOffset":26684,"byteLength":528,"target":34962,"byteStride":12},{"buffer":0,"byteOffset":27212,"byteLength":528,"target":34962,"byteStride":12},{"buffer":0,"byteOffset":27740,"byteLength":352,"target":34962,"byteStride":8},{"buffer":0,"byteOffset":28092,"byteLength":120,"target":34963},{"buffer":0,"byteOffset":28212,"byteLength":576,"target":34962,"byteStride":12},{"buffer":0,"byteOffset":28788,"byteLength":576,"target":34962,"byteStride":12},{"buffer":0,"byteOffset":29364,"byteLength":384,"target":34962,"byteStride":8},{"buffer":0,"byteOffset":29748,"byteLength":144,"target":34963},{"buffer":0,"byteOffset":29892,"byteLength":1440,"target":34962,"byteStride":12},{"buffer":0,"byteOffset":31332,"byteLength":1440,"target":34962,"byteStride":12},{"buffer":0,"byteOffset":32772,"byteLength":960,"target":34962,"byteStride":8},{"buffer":0,"byteOffset":33732,"byteLength":288,"target":34963},{"buffer":0,"byteOffset":34020,"byteLength":1440,"target":34962,"byteStride":12},{"buffer":0,"byteOffset":35460,"byteLength":1440,"target":34962,"byteStride":12},{"buffer":0,"byteOffset":36900,"byteLength":960,"target":34962,"byteStride":8},{"buffer":0,"byteOffset":37860,"byteLength":288,"target":34963},{"buffer":0,"byteOffset":38148,"byteLength":720,"target":34962,"byteStride":12},{"buffer":0,"byteOffset":38868,"byteLength":720,"target":34962,"byteStride":12},{"buffer":0,"byteOffset":39588,"byteLength":480,"target":34962,"byteStride":8},{"buffer":0,"byteOffset":40068,"byteLength":144,"target":34963},{"buffer":0,"byteOffset":40212,"byteLength":720,"target":34962,"byteStride":12},{"buffer":0,"byteOffset":40932,"byteLength":720,"target":34962,"byteStride":12},{"buffer":0,"byteOffset":41652,"byteLength":480,"target":34962,"byteStride":8},{"buffer":0,"byteOffset":42132,"byteLength":144,"target":34963},{"buffer":0,"byteOffset":42276,"byteLength":720,"target":34962,"byteStride":12},{"buffer":0,"byteOffset":42996,"byteLength":720,"target":34962,"byteStride":12},{"buffer":0,"byteOffset":43716,"byteLength":480,"target":34962,"byteStride":8},{"buffer":0,"byteOffset":44196,"byteLength":144,"target":34963},{"buffer":0,"byteOffset":44340,"byteLength":720,"target":34962,"byteStride":12},{"buffer":0,"byteOffset":45060,"byteLength":720,"target":34962,"byteStride":12},{"buffer":0,"byteOffset":45780,"byteLength":480,"target":34962,"byteStride":8},{"buffer":0,"byteOffset":46260,"byteLength":144,"target":34963},{"buffer":0,"byteOffset":46404,"byteLength":720,"target":34962,"byteStride":12},{"buffer":0,"byteOffset":47124,"byteLength":720,"target":34962,"byteStride":12},{"buffer":0,"byteOffset":47844,"byteLength":480,"target":34962,"byteStride":8},{"buffer":0,"byteOffset":48324,"byteLength":144,"target":34963},{"buffer":0,"byteOffset":48468,"byteLength":720,"target":34962,"byteStride":12},{"buffer":0,"byteOffset":49188,"byteLength":720,"target":34962,"byteStride":12},{"buffer":0,"byteOffset":49908,"byteLength":480,"target":34962,"byteStride":8},{"buffer":0,"byteOffset":50388,"byteLength":144,"target":34963},{"buffer":0,"byteOffset":50532,"byteLength":720,"target":34962,"byteStride":12},{"buffer":0,"byteOffset":51252,"byteLength":720,"target":34962,"byteStride":12},{"buffer":0,"byteOffset":51972,"byteLength":480,"target":34962,"byteStride":8},{"buffer":0,"byteOffset":52452,"byteLength":144,"target":34963}],"buffers":[{"byteLength":52596,"uri":"data:application/octet-stream;base64,"}],"accessors":[{"bufferView":0,"componentType":5126,"count":16,"max":[0.15625,0.3125,0.125],"min":[-0.15625,0.1875,-0.125],"type":"VEC3"},{"bufferView":1,"componentType":5126,"count":16,"max":[0.6246950626373291,0.7808688282966614,0.7071067690849304],"min":[-0.6246950626373291,-1,-0.7071067690849304],"type":"VEC3"},{"bufferView":2,"componentType":5126,"count":16,"max":[0.125,0.13975471258163452],"min":[0,0],"type":"VEC2"},{"bufferView":3,"componentType":5123,"count":18,"max":[15],"min":[0],"type":"SCALAR"},{"bufferView":4,"componentType":5126,"count":24,"max":[0.1875,0.53125,0.1875],"min":[-0.1875,0.09375,-0.125],"type":"VEC3"},{"bufferView":5,"componentType":5126,"count":24,"max":[0.9899494647979736,1,0.9899494647979736],"min":[-0.9899494647979736,-1,-0.9899494647979736],"type":"VEC3"},{"bufferView":6,"componentType":5126,"count":24,"max":[0.125,0.125],"min":[0,0],"type":"VEC2"},{"bufferView":7,"componentType":5123,"count":36,"max":[23],"min":[0],"type":"SCALAR"},{"bufferView":8,"componentType":5126,"count":264,"max":[0.125,0.125,0.125],"min":[-0.125,-0.125,-0.125],"type":"VEC3"},{"bufferView":9,"componentType":5126,"count":264,"max":[0.9659258127212524,0.9659258127212524,0.9659258127212524],"min":[-0.9659258127212524,-0.9659258127212524,-0.9659258127212524],"type":"VEC3"},{"bufferView":10,"componentType":5126,"count":264,"max":[0.03349374979734421,0.032353103160858154],"min":[0,0],"type":"VEC2"},{"bufferView":11,"componentType":5123,"count":360,"max":[263],"min":[0],"type":"SCALAR"},{"bufferView":12,"componentType":5126,"count":120,"max":[0.078125,0.125,0.078125],"min":[-0.078125,0,-0.078125],"type":"VEC3"},{"bufferView":13,"componentType":5126,"count":120,"max":[1,1,1],"min":[-1,-1,-1],"type":"VEC3"},{"bufferView":14,"componentType":5126,"count":120,"max":[0.016177278012037277,0.03125],"min":[0,0],"type":"VEC2"},{"bufferView":15,"componentType":5123,"count":144,"max":[119],"min":[0],"type":"SCALAR"},{"bufferView":16,"componentType":5126,"count":120,"max":[0.0390625,0.40625,0.0390625],"min":[-0.0390625,0.09375,-0.0390625],"type":"VEC3"},{"bufferView":17,"componentType":5126,"count":120,"max":[1,1,1],"min":[-1,-1,-1],"type":"VEC3"},{"bufferView":18,"componentType":5126,"count":120,"max":[0.0647047758102417,0.125],"min":[0,0],"type":"VEC2"},{"bufferView":19,"componentType":5123,"count":144,"max":[119],"min":[0],"type":"SCALAR"},{"bufferView":20,"componentType":5126,"count":120,"max":[0.03125,0.25,0.03125],"min":[-0.03125,-0.0625,-0.03125],"type":"VEC3"},{"bufferView":21,"componentType":5126,"count":120,"max":[1,1,1],"min":[-1,-1,-1],"type":"VEC3"},{"bufferView":22,"componentType":5126,"count":120,"max":[0.008088197559118271,0.046875],"min":[0,0],"type":"VEC2"},{"bufferView":23,"componentType":5123,"count":144,"max":[119],"min":[0],"type":"SCALAR"},{"bufferView":24,"componentType":5126,"count":60,"max":[0.046875,0.046875,0.046875],"min":[-0.046875,-0.046875,-0.046875],"type":"VEC3"},{"bufferView":25,"componentType":5126,"count":60,"max":[0.8944271802902222,0.8944271802902222,1],"min":[-0.8944271802902222,-0.8944271802902222,-1],"type":"VEC3"},{"bufferView":26,"componentType":5126,"count":60,"max":[0.0078125,0.0078125],"min":[0,0],"type":"VEC2"},{"bufferView":27,"componentType":5123,"count":72,"max":[59],"min":[0],"type":"SCALAR"},{"bufferView":28,"componentType":5126,"count":48,"max":[0.0234375,0.15625,0.0078125],"min":[-0.0234375,-0.09375,-0.0390625],"type":"VEC3"},{"bufferView":29,"componentType":5126,"count":48,"max":[0.8944271802902222,1,1],"min":[-0.8944271802902222,-1,-1],"type":"VEC3"},{"bufferView":30,"componentType":5126,"count":48,"max":[0.02706249989569187,0.023487508296966553],"min":[0,0],"type":"VEC2"},{"bufferView":31,"componentType":5123,"count":72,"max":[47],"min":[0],"type":"SCALAR"},{"bufferView":32,"componentType":5126,"count":44,"max":[0.015625,0.34375,0.0078125],"min":[-0.015625,-0.34375,-0.0390625],"type":"VEC3"},{"bufferView":33,"componentType":5126,"count":44,"max":[0.9486833214759827,1,0.3162277638912201],"min":[-0.9486833214759827,-1,-1],"type":"VEC3"},{"bufferView":34,"componentType":5126,"count":44,"max":[0.02706249989569187,0.0234375],"min":[0,0],"type":"VEC2"},{"bufferView":35,"componentType":5123,"count":60,"max":[43],"min":[0],"type":"SCALAR"},{"bufferView":36,"componentType":5126,"count":48,"max":[0.03125,0.125,-0.0078125],"min":[-0.03125,-0.0625,-0.0234375],"type":"VEC3"},{"bufferView":37,"componentType":5126,"count":48,"max":[0.4472135901451111,1,1],"min":[-0.4472135901451111,-1,-1],"type":"VEC3"},{"bufferView":38,"componentType":5126,"count":48,"max":[0.02706249989569187,0.023487508296966553],"min":[0,0],"type":"VEC2"},{"bufferView":39,"componentType":5123,"count":72,"max":[47],"min":[0],"type":"SCALAR"},{"bufferView":40,"componentType":5126,"count":120,"max":[0.0390625,0.15625,0.0390625],"min":[-0.0390625,-0.15625,-0.0390625],"type":"VEC3"},{"bufferView":41,"componentType":5126,"count":120,"max":[1,1,1],"min":[-1,-1,-1],"type":"VEC3"},{"bufferView":42,"componentType":5126,"count":120,"max":[0.0647047758102417,0.125],"min":[0,0],"type":"VEC2"},{"bufferView":43,"componentType":5123,"count":144,"max":[119],"min":[0],"type":"SCALAR"},{"bufferView":44,"componentType":5126,"count":120,"max":[0.03125,0.25,0.03125],"min":[-0.03125,-0.0625,-0.03125],"type":"VEC3"},{"bufferView":45,"componentType":5126,"count":120,"max":[1,1,1],"min":[-1,-1,-1],"type":"VEC3"},{"bufferView":46,"componentType":5126,"count":120,"max":[0.008088197559118271,0.046875],"min":[0,0],"type":"VEC2"},{"bufferView":47,"componentType":5123,"count":144,"max":[119],"min":[0],"type":"SCALAR"},{"bufferView":48,"componentType":5126,"count":60,"max":[0.046875,0.046875,0.046875],"min":[-0.046875,-0.046875,-0.046875],"type":"VEC3"},{"bufferView":49,"componentType":5126,"count":60,"max":[0.8944271802902222,0.8944271802902222,1],"min":[-0.8944271802902222,-0.8944271802902222,-1],"type":"VEC3"},{"bufferView":50,"componentType":5126,"count":60,"max":[0.0078125,0.0078125],"min":[0,0],"type":"VEC2"},{"bufferView":51,"componentType":5123,"count":72,"max":[59],"min":[0],"type":"SCALAR"},{"bufferView":52,"componentType":5126,"count":60,"max":[0.046875,0.34375,0.046875],"min":[-0.046875,0.03125,-0.046875],"type":"VEC3"},{"bufferView":53,"componentType":5126,"count":60,"max":[0.8944271802902222,1,1],"min":[-0.8944271802902222,-1,-1],"type":"VEC3"},{"bufferView":54,"componentType":5126,"count":60,"max":[0.009021875448524952,0.09375],"min":[0,0],"type":"VEC2"},{"bufferView":55,"componentType":5123,"count":72,"max":[59],"min":[0],"type":"SCALAR"},{"bufferView":56,"componentType":5126,"count":60,"max":[0.03125,0.40625,0.03125],"min":[-0.03125,-0.03125,-0.03125],"type":"VEC3"},{"bufferView":57,"componentType":5126,"count":60,"max":[0.8944271802902222,1,1],"min":[-0.8944271802902222,-1,-1],"type":"VEC3"},{"bufferView":58,"componentType":5126,"count":60,"max":[0.009021875448524952,0.09375],"min":[0,0],"type":"VEC2"},{"bufferView":59,"componentType":5123,"count":72,"max":[59],"min":[0],"type":"SCALAR"},{"bufferView":60,"componentType":5126,"count":60,"max":[0.046875,0.03125,0.0625],"min":[-0.046875,-0.015625,-0.0625],"type":"VEC3"},{"bufferView":61,"componentType":5126,"count":60,"max":[0.936329185962677,0.9701424837112427,1],"min":[-0.936329185962677,-1,-1],"type":"VEC3"},{"bufferView":62,"componentType":5126,"count":60,"max":[0.0078125,0.0078125],"min":[0,0],"type":"VEC2"},{"bufferView":63,"componentType":5123,"count":72,"max":[59],"min":[0],"type":"SCALAR"},{"bufferView":64,"componentType":5126,"count":60,"max":[0.046875,0.34375,0.046875],"min":[-0.046875,0.03125,-0.046875],"type":"VEC3"},{"bufferView":65,"componentType":5126,"count":60,"max":[0.8944271802902222,1,1],"min":[-0.8944271802902222,-1,-1],"type":"VEC3"},{"bufferView":66,"componentType":5126,"count":60,"max":[0.009021875448524952,0.09375],"min":[0,0],"type":"VEC2"},{"bufferView":67,"componentType":5123,"count":72,"max":[59],"min":[0],"type":"SCALAR"},{"bufferView":68,"componentType":5126,"count":60,"max":[0.03125,0.40625,0.03125],"min":[-0.03125,-0.03125,-0.03125],"type":"VEC3"},{"bufferView":69,"componentType":5126,"count":60,"max":[0.8944271802902222,1,1],"min":[-0.8944271802902222,-1,-1],"type":"VEC3"},{"bufferView":70,"componentType":5126,"count":60,"max":[0.009021875448524952,0.09375],"min":[0,0],"type":"VEC2"},{"bufferView":71,"componentType":5123,"count":72,"max":[59],"min":[0],"type":"SCALAR"},{"bufferView":72,"componentType":5126,"count":60,"max":[0.046875,0.03125,0.0625],"min":[-0.046875,-0.015625,-0.0625],"type":"VEC3"},{"bufferView":73,"componentType":5126,"count":60,"max":[0.936329185962677,0.9701424837112427,1],"min":[-0.936329185962677,-1,-1],"type":"VEC3"},{"bufferView":74,"componentType":5126,"count":60,"max":[0.0078125,0.0078125],"min":[0,0],"type":"VEC2"},{"bufferView":75,"componentType":5123,"count":72,"max":[59],"min":[0],"type":"SCALAR"}],"materials":[{"pbrMetallicRoughness":{"metallicFactor":0,"roughnessFactor":1},"alphaMode":"MASK","alphaCutoff":0.05,"doubleSided":true}],"meshes":[{"primitives":[{"mode":4,"attributes":{"POSITION":0,"NORMAL":1,"TEXCOORD_0":2},"indices":3,"material":0}]},{"primitives":[{"mode":4,"attributes":{"POSITION":4,"NORMAL":5,"TEXCOORD_0":6},"indices":7,"material":0}]},{"primitives":[{"mode":4,"attributes":{"POSITION":8,"NORMAL":9,"TEXCOORD_0":10},"indices":11,"material":0}]},{"primitives":[{"mode":4,"attributes":{"POSITION":12,"NORMAL":13,"TEXCOORD_0":14},"indices":15,"material":0}]},{"primitives":[{"mode":4,"attributes":{"POSITION":16,"NORMAL":17,"TEXCOORD_0":18},"indices":19,"material":0}]},{"primitives":[{"mode":4,"attributes":{"POSITION":20,"NORMAL":21,"TEXCOORD_0":22},"indices":23,"material":0}]},{"primitives":[{"mode":4,"attributes":{"POSITION":24,"NORMAL":25,"TEXCOORD_0":26},"indices":27,"material":0}]},{"primitives":[{"mode":4,"attributes":{"POSITION":28,"NORMAL":29,"TEXCOORD_0":30},"indices":31,"material":0}]},{"primitives":[{"mode":4,"attributes":{"POSITION":32,"NORMAL":33,"TEXCOORD_0":34},"indices":35,"material":0}]},{"primitives":[{"mode":4,"attributes":{"POSITION":36,"NORMAL":37,"TEXCOORD_0":38},"indices":39,"material":0}]},{"primitives":[{"mode":4,"attributes":{"POSITION":40,"NORMAL":41,"TEXCOORD_0":42},"indices":43,"material":0}]},{"primitives":[{"mode":4,"attributes":{"POSITION":44,"NORMAL":45,"TEXCOORD_0":46},"indices":47,"material":0}]},{"primitives":[{"mode":4,"attributes":{"POSITION":48,"NORMAL":49,"TEXCOORD_0":50},"indices":51,"material":0}]},{"primitives":[{"mode":4,"attributes":{"POSITION":52,"NORMAL":53,"TEXCOORD_0":54},"indices":55,"material":0}]},{"primitives":[{"mode":4,"attributes":{"POSITION":56,"NORMAL":57,"TEXCOORD_0":58},"indices":59,"material":0}]},{"primitives":[{"mode":4,"attributes":{"POSITION":60,"NORMAL":61,"TEXCOORD_0":62},"indices":63,"material":0}]},{"primitives":[{"mode":4,"attributes":{"POSITION":64,"NORMAL":65,"TEXCOORD_0":66},"indices":67,"material":0}]},{"primitives":[{"mode":4,"attributes":{"POSITION":68,"NORMAL":69,"TEXCOORD_0":70},"indices":71,"material":0}]},{"primitives":[{"mode":4,"attributes":{"POSITION":72,"NORMAL":73,"TEXCOORD_0":74},"indices":75,"material":0}]}]}