{"asset":{"version":"2.0","generator":"Blockbench 4.11.2 glTF exporter"},"scenes":[{"nodes":[6],"name":"blockbench_export"}],"scene":0,"nodes":[{"translation":[0,-0.05937499999999999,0],"name":"cuboid","mesh":0},{"rotation":[0.7071067811865475,0,0,0.7071067811865476],"translation":[0,-0.006249999999999995,-0.234375],"name":"cone","mesh":1},{"translation":[-0.03125,0.01875,0.265625],"name":"plane","mesh":2},{"translation":[-0.015625,-0.012500000000000002,0.265625],"name":"plane","mesh":3},{"translation":[-0.046875,-0.012500000000000002,0.265625],"name":"plane","mesh":4},{"name":"root","children":[0,1,2,3,4]},{"children":[5]}],"bufferViews":[{"buffer":0,"byteOffset":0,"byteLength":216,"target":34962,"byteStride":12},{"buffer":0,"byteOffset":216,"byteLength":216,"target":34962,"byteStride":12},{"buffer":0,"byteOffset":432,"byteLength":144,"target":34962,"byteStride":8},{"buffer":0,"byteOffset":576,"byteLength":48,"target":34963},{"buffer":0,"byteOffset":624,"byteLength":216,"target":34962,"byteStride":12},{"buffer":0,"byteOffset":840,"byteLength":216,"target":34962,"byteStride":12},{"buffer":0,"byteOffset":1056,"byteLength":144,"target":34962,"byteStride":8},{"buffer":0,"byteOffset":1200,"byteLength":36,"target":34963},{"buffer":0,"byteOffset":1236,"byteLength":36,"target":34962,"byteStride":12},{"buffer":0,"byteOffset":1272,"byteLength":36,"target":34962,"byteStride":12},{"buffer":0,"byteOffset":1308,"byteLength":24,"target":34962,"byteStride":8},{"buffer":0,"byteOffset":1332,"byteLength":8,"target":34963},{"buffer":0,"byteOffset":1340,"byteLength":36,"target":34962,"byteStride":12},{"buffer":0,"byteOffset":1376,"byteLength":36,"target":34962,"byteStride":12},{"buffer":0,"byteOffset":1412,"byteLength":24,"target":34962,"byteStride":8},{"buffer":0,"byteOffset":1436,"byteLength":8,"target":34963},{"buffer":0,"byteOffset":1444,"byteLength":36,"target":34962,"byteStride":12},{"buffer":0,"byteOffset":1480,"byteLength":36,"target":34962,"byteStride":12},{"buffer":0,"byteOffset":1516,"byteLength":24,"target":34962,"byteStride":8},{"buffer":0,"byteOffset":1540,"byteLength":8,"target":34963},{"buffer":0,"byteOffset":1548,"byteLength":16},{"buffer":0,"byteOffset":1564,"byteLength":64}],"buffers":[{"byteLength":1628,"uri":"data:application/octet-stream;base64,"}],"accessors":[{"bufferView":0,"componentType":5126,"count":18,"max":[0.015625,0.078125,0.25],"min":[-0.015625,0.046875,-0.25],"type":"VEC3"},{"bufferView":1,"componentType":5126,"count":18,"max":[0.8944271802902222,0.4472135901451111,0],"min":[-0.8944271802902222,-1,-1],"type":"VEC3"},{"bufferView":2,"componentType":5126,"count":18,"max":[0.625,0.59375],"min":[0,0],"type":"VEC2"},{"bufferView":3,"componentType":5123,"count":24,"max":[17],"min":[0],"type":"SCALAR"},{"bufferView":4,"componentType":5126,"count":18,"max":[0.03125,-0.015625,0.015625],"min":[-0.03125,-0.109375,-0.046875],"type":"VEC3"},{"bufferView":5,"componentType":5126,"count":18,"max":[0.8772663474082947,0.21693046391010284,0.43863317370414734],"min":[-0.8772663474082947,-1,-0.9761870503425598],"type":"VEC3"},{"bufferView":6,"componentType":5126,"count":18,"max":[0.5609663724899292,0.5651017427444458],"min":[0.1474040448665619,0.25],"type":"VEC2"},{"bufferView":7,"componentType":5123,"count":18,"max":[17],"min":[0],"type":"SCALAR"},{"bufferView":8,"componentType":5126,"count":3,"max":[0.03125,0.0625,-0.03125],"min":[0.03125,0,-0.21875],"type":"VEC3"},{"bufferView":9,"componentType":5126,"count":3,"max":[-1,0,0],"min":[-1,0,0],"type":"VEC3"},{"bufferView":10,"componentType":5126,"count":3,"max":[0.25,0.3125],"min":[0.125,0.25],"type":"VEC2"},{"bufferView":11,"componentType":5123,"count":3,"max":[2],"min":[0],"type":"SCALAR"},{"bufferView":12,"componentType":5126,"count":3,"max":[0.0625,0,-0.03125],"min":[0.03125,-0.05000000074505806,-0.21875],"type":"VEC3"},{"bufferView":13,"componentType":5126,"count":3,"max":[0.847998321056366,0.5299988985061646,0],"min":[0.847998321056366,0.5299988985061646,0],"type":"VEC3"},{"bufferView":14,"componentType":5126,"count":3,"max":[0.25,0.43396252393722534],"min":[0.125,0.375],"type":"VEC2"},{"bufferView":15,"componentType":5123,"count":3,"max":[2],"min":[0],"type":"SCALAR"},{"bufferView":16,"componentType":5126,"count":3,"max":[0.03125,0,-0.03125],"min":[0,-0.05000000074505806,-0.21875],"type":"VEC3"},{"bufferView":17,"componentType":5126,"count":3,"max":[0.847998321056366,-0.5299988985061646,0],"min":[0.847998321056366,-0.5299988985061646,0],"type":"VEC3"},{"bufferView":18,"componentType":5126,"count":3,"max":[0.4375,0.3125],"min":[0.3125,0.25353747606277466],"type":"VEC2"},{"bufferView":19,"componentType":5123,"count":3,"max":[2],"min":[0],"type":"SCALAR"},{"bufferView":20,"componentType":5126,"count":4,"max":[4],"min":[0],"type":"SCALAR"},{"bufferView":21,"componentType":5126,"count":4,"max":[0,0,0.8660253882408142,1],"min":[0,0,0,-1],"type":"VEC4"}],"materials":[{"pbrMetallicRoughness":{"metallicFactor":0,"roughnessFactor":1,"baseColorTexture":{"index":0}},"alphaMode":"MASK","alphaCutoff":0.05,"doubleSided":true}],"textures":[{"sampler":0,"source":0,"name":"templeArrowTexture.png"}],"samplers":[{"magFilter":9728,"minFilter":9728,"wrapS":33071,"wrapT":33071}],"images":[{"mimeType":"image/png","uri":"data:image/png;base64,"}],"meshes":[{"primitives":[{"mode":4,"attributes":{"POSITION":0,"NORMAL":1,"TEXCOORD_0":2},"indices":3,"material":0}]},{"primitives":[{"mode":4,"attributes":{"POSITION":4,"NORMAL":5,"TEXCOORD_0":6},"indices":7,"material":0}]},{"primitives":[{"mode":4,"attributes":{"POSITION":8,"NORMAL":9,"TEXCOORD_0":10},"indices":11,"material":0}]},{"primitives":[{"mode":4,"attributes":{"POSITION":12,"NORMAL":13,"TEXCOORD_0":14},"indices":15,"material":0}]},{"primitives":[{"mode":4,"attributes":{"POSITION":16,"NORMAL":17,"TEXCOORD_0":18},"indices":19,"material":0}]}],"animations":[{"name":"flying","samplers":[{"input":20,"output":21,"interpolation":"LINEAR"}],"channels":[{"sampler":0,"target":{"node":5,"path":"rotation"}}]}]}