{"asset":{"version":"2.0","generator":"Blockbench 4.12.2 glTF exporter"},"scenes":[{"nodes":[3],"name":"blockbench_export"}],"scene":0,"nodes":[{"translation":[-0.0625,0.140625,0],"name":"cylinder","mesh":0},{"translation":[-0.0625,1.015625,0],"name":"sphere","mesh":1},{"translation":[0.0625,0.171875,0],"name":"root","children":[0,1]},{"children":[2]}],"bufferViews":[{"buffer":0,"byteOffset":0,"byteLength":960,"target":34962,"byteStride":12},{"buffer":0,"byteOffset":960,"byteLength":960,"target":34962,"byteStride":12},{"buffer":0,"byteOffset":1920,"byteLength":640,"target":34962,"byteStride":8},{"buffer":0,"byteOffset":2560,"byteLength":192,"target":34963},{"buffer":0,"byteOffset":2752,"byteLength":720,"target":34962,"byteStride":12},{"buffer":0,"byteOffset":3472,"byteLength":720,"target":34962,"byteStride":12},{"buffer":0,"byteOffset":4192,"byteLength":480,"target":34962,"byteStride":8},{"buffer":0,"byteOffset":4672,"byteLength":144,"target":34963}],"buffers":[{"byteLength":4816,"uri":"data:application/octet-stream;base64,"}],"accessors":[{"bufferView":0,"componentType":5126,"count":80,"max":[0.03125,0.8125,0.03125],"min":[-0.03125,-0.3125,-0.03125],"type":"VEC3"},{"bufferView":1,"componentType":5126,"count":80,"max":[1,1,1],"min":[-1,-1,-1],"type":"VEC3"},{"bufferView":2,"componentType":5126,"count":80,"max":[0.3125,0.5625],"min":[0,0],"type":"VEC2"},{"bufferView":3,"componentType":5123,"count":96,"max":[79],"min":[0],"type":"SCALAR"},{"bufferView":4,"componentType":5126,"count":60,"max":[0.046875,0.0703125,0.0390625],"min":[-0.046875,-0.0859375,-0.0390625],"type":"VEC3"},{"bufferView":5,"componentType":5126,"count":60,"max":[0.8574929237365723,0.6387317180633545,1],"min":[-0.8574929237365723,-0.9320546388626099,-1],"type":"VEC3"},{"bufferView":6,"componentType":5126,"count":60,"max":[0.46875,0.43425625562667847],"min":[0,0],"type":"VEC2"},{"bufferView":7,"componentType":5123,"count":72,"max":[59],"min":[0],"type":"SCALAR"}],"materials":[{"pbrMetallicRoughness":{"metallicFactor":0,"roughnessFactor":1,"baseColorTexture":{"index":0}},"alphaMode":"MASK","alphaCutoff":0.05,"doubleSided":true}],"textures":[{"sampler":0,"source":0,"name":"torchWallTexture"}],"samplers":[{"magFilter":9728,"minFilter":9728,"wrapS":33071,"wrapT":33071}],"images":[{"mimeType":"image/png","uri":"data:image/png;base64,"}],"meshes":[{"primitives":[{"mode":4,"attributes":{"POSITION":0,"NORMAL":1,"TEXCOORD_0":2},"indices":3,"material":0}]},{"primitives":[{"mode":4,"attributes":{"POSITION":4,"NORMAL":5,"TEXCOORD_0":6},"indices":7,"material":0}]}]}