{"asset":{"version":"2.0","generator":"Blockbench 4.12.2 glTF exporter"},"scenes":[{"nodes":[6],"name":"blockbench_export"}],"scene":0,"nodes":[{"rotation":[0,0,0.7071067811865475,0.7071067811865476],"translation":[0.0625,0.0625,0],"name":"cylinder","mesh":0},{"rotation":[0,0,0.7071067811865475,0.7071067811865476],"translation":[0.09375,0.0625,0],"name":"cylinder","mesh":1},{"translation":[0,0.546875,0],"name":"sphere","mesh":2},{"name":"cylinder","mesh":3},{"rotation":[0,0,0.19509032201612825,0.9807852804032304],"translation":[0.0625,-0.078125,0],"name":"torch","children":[2,3]},{"translation":[0,0.25,0],"name":"root","children":[0,1,4]},{"children":[5]}],"bufferViews":[{"buffer":0,"byteOffset":0,"byteLength":720,"target":34962,"byteStride":12},{"buffer":0,"byteOffset":720,"byteLength":720,"target":34962,"byteStride":12},{"buffer":0,"byteOffset":1440,"byteLength":480,"target":34962,"byteStride":8},{"buffer":0,"byteOffset":1920,"byteLength":144,"target":34963},{"buffer":0,"byteOffset":2064,"byteLength":720,"target":34962,"byteStride":12},{"buffer":0,"byteOffset":2784,"byteLength":720,"target":34962,"byteStride":12},{"buffer":0,"byteOffset":3504,"byteLength":480,"target":34962,"byteStride":8},{"buffer":0,"byteOffset":3984,"byteLength":144,"target":34963},{"buffer":0,"byteOffset":4128,"byteLength":720,"target":34962,"byteStride":12},{"buffer":0,"byteOffset":4848,"byteLength":720,"target":34962,"byteStride":12},{"buffer":0,"byteOffset":5568,"byteLength":480,"target":34962,"byteStride":8},{"buffer":0,"byteOffset":6048,"byteLength":144,"target":34963},{"buffer":0,"byteOffset":6192,"byteLength":960,"target":34962,"byteStride":12},{"buffer":0,"byteOffset":7152,"byteLength":960,"target":34962,"byteStride":12},{"buffer":0,"byteOffset":8112,"byteLength":640,"target":34962,"byteStride":8},{"buffer":0,"byteOffset":8752,"byteLength":192,"target":34963}],"buffers":[{"byteLength":8944,"uri":"data:application/octet-stream;base64,"}],"accessors":[{"bufferView":0,"componentType":5126,"count":60,"max":[0.1875,0.046875,0.09375],"min":[-0.1875,0.015625,-0.09375],"type":"VEC3"},{"bufferView":1,"componentType":5126,"count":60,"max":[0.7071067690849304,1,1],"min":[-0.7071067690849304,-1,-1],"type":"VEC3"},{"bufferView":2,"componentType":5126,"count":60,"max":[0.46875,0.4375],"min":[0.15625,0],"type":"VEC2"},{"bufferView":3,"componentType":5123,"count":72,"max":[59],"min":[0],"type":"SCALAR"},{"bufferView":4,"componentType":5126,"count":60,"max":[0.25,0.046875,0.15625],"min":[-0.25,0.015625,-0.15625],"type":"VEC3"},{"bufferView":5,"componentType":5126,"count":60,"max":[0.7808688282966614,1,1],"min":[-0.7808688282966614,-1,-1],"type":"VEC3"},{"bufferView":6,"componentType":5126,"count":60,"max":[0.5,0.40625],"min":[0,0],"type":"VEC2"},{"bufferView":7,"componentType":5123,"count":72,"max":[59],"min":[0],"type":"SCALAR"},{"bufferView":8,"componentType":5126,"count":60,"max":[0.046875,0.0390625,0.0390625],"min":[-0.046875,-0.0546875,-0.0390625],"type":"VEC3"},{"bufferView":9,"componentType":5126,"count":60,"max":[0.8574929237365723,0.810467541217804,1],"min":[-0.8574929237365723,-0.9738617539405823,-1],"type":"VEC3"},{"bufferView":10,"componentType":5126,"count":60,"max":[0.46875,0.43425625562667847],"min":[0,0],"type":"VEC2"},{"bufferView":11,"componentType":5123,"count":72,"max":[59],"min":[0],"type":"SCALAR"},{"bufferView":12,"componentType":5126,"count":80,"max":[0.03125,0.5,0.03125],"min":[-0.03125,0,-0.03125],"type":"VEC3"},{"bufferView":13,"componentType":5126,"count":80,"max":[1,1,1],"min":[-1,-1,-1],"type":"VEC3"},{"bufferView":14,"componentType":5126,"count":80,"max":[0.3125,0.5625],"min":[0,0],"type":"VEC2"},{"bufferView":15,"componentType":5123,"count":96,"max":[79],"min":[0],"type":"SCALAR"}],"materials":[{"pbrMetallicRoughness":{"metallicFactor":0,"roughnessFactor":1,"baseColorTexture":{"index":0}},"alphaMode":"MASK","alphaCutoff":0.05,"doubleSided":true}],"textures":[{"sampler":0,"source":0,"name":"torchWallTexture"}],"samplers":[{"magFilter":9728,"minFilter":9728,"wrapS":33071,"wrapT":33071}],"images":[{"mimeType":"image/png","uri":"data:image/png;base64,"}],"meshes":[{"primitives":[{"mode":4,"attributes":{"POSITION":0,"NORMAL":1,"TEXCOORD_0":2},"indices":3,"material":0}]},{"primitives":[{"mode":4,"attributes":{"POSITION":4,"NORMAL":5,"TEXCOORD_0":6},"indices":7,"material":0}]},{"primitives":[{"mode":4,"attributes":{"POSITION":8,"NORMAL":9,"TEXCOORD_0":10},"indices":11,"material":0}]},{"primitives":[{"mode":4,"attributes":{"POSITION":12,"NORMAL":13,"TEXCOORD_0":14},"indices":15,"material":0}]}]}